<?xml version="1.0" standalone="no"?>
<!DOCTYPE svg PUBLIC "-//W3C//DTD SVG 20010904//EN"
 "http://www.w3.org/TR/2001/REC-SVG-20010904/DTD/svg10.dtd">
<svg version="1.0" xmlns="http://www.w3.org/2000/svg"
 width="3900.000000pt" height="3900.000000pt" viewBox="0 0 3900.000000 3900.000000"
 preserveAspectRatio="xMidYMid meet">
<metadata>
Created by potrace 1.11, written by Peter Selinger 2001-2013
</metadata>
<g transform="translate(0.000000,3900.000000) scale(0.100000,-0.100000)"
fill="#000000" stroke="none">
<path d="M18998 38955 c-2 -1 -93 -5 -203 -9 -200 -6 -269 -10 -465 -22 -58
-3 -127 -7 -155 -9 -103 -6 -241 -16 -275 -20 -19 -2 -71 -6 -115 -10 -44 -3
-91 -8 -105 -10 -14 -2 -61 -7 -105 -10 -44 -3 -91 -8 -105 -10 -14 -2 -54 -6
-90 -10 -36 -3 -81 -8 -100 -10 -19 -3 -57 -7 -85 -10 -60 -7 -121 -15 -155
-20 -14 -2 -50 -7 -80 -10 -30 -4 -64 -8 -75 -10 -11 -1 -47 -6 -80 -9 -33 -4
-67 -9 -75 -12 -8 -2 -38 -6 -65 -9 -28 -3 -75 -10 -105 -15 -30 -5 -71 -12
-90 -15 -19 -3 -46 -7 -60 -10 -14 -2 -43 -7 -65 -10 -37 -5 -82 -12 -130 -21
-11 -2 -83 -15 -160 -28 -77 -14 -174 -32 -215 -40 -41 -8 -88 -18 -105 -20
-16 -3 -75 -15 -130 -26 -55 -12 -109 -23 -120 -26 -11 -2 -45 -9 -75 -15 -56
-11 -507 -114 -570 -131 -19 -5 -42 -10 -50 -12 -8 -2 -35 -9 -60 -16 -25 -7
-52 -13 -60 -15 -28 -6 -335 -86 -390 -103 -30 -8 -59 -17 -65 -18 -204 -49
-953 -291 -1360 -439 -258 -94 -785 -300 -920 -359 -19 -9 -50 -22 -67 -30
-18 -8 -53 -23 -78 -34 -25 -11 -79 -34 -120 -52 -41 -18 -108 -48 -148 -66
-41 -19 -75 -34 -77 -34 -1 0 -56 -25 -121 -56 -66 -31 -148 -70 -184 -86 -84
-39 -610 -302 -675 -338 -27 -15 -84 -45 -125 -67 -501 -265 -1102 -625 -1615
-966 -132 -88 -251 -169 -265 -179 -14 -11 -81 -58 -150 -106 -69 -47 -127
-88 -130 -91 -3 -4 -27 -21 -55 -40 -167 -115 -890 -672 -995 -767 -14 -12
-70 -60 -125 -105 -55 -45 -118 -99 -141 -118 -22 -20 -66 -58 -98 -86 -67
-57 -71 -60 -157 -137 -35 -31 -75 -66 -89 -78 -57 -49 -325 -298 -464 -430
-135 -130 -486 -480 -626 -626 -117 -122 -285 -303 -385 -415 -183 -205 -280
-316 -380 -434 -64 -77 -129 -153 -144 -170 -14 -16 -108 -133 -209 -260 -101
-126 -191 -239 -200 -250 -9 -11 -92 -121 -184 -245 -93 -124 -172 -229 -176
-235 -31 -40 -244 -342 -307 -435 -43 -63 -102 -150 -132 -193 -29 -42 -53
-79 -53 -81 0 -2 -33 -52 -73 -112 -39 -61 -87 -134 -106 -164 -18 -30 -42
-67 -53 -83 -95 -137 -516 -856 -627 -1072 -14 -27 -28 -52 -31 -55 -3 -3 -26
-43 -50 -90 -24 -47 -57 -110 -73 -140 -37 -68 -282 -558 -330 -660 -131 -279
-224 -485 -334 -745 -46 -110 -88 -209 -93 -220 -83 -185 -465 -1219 -484
-1310 -3 -12 -93 -297 -106 -335 -5 -14 -20 -65 -35 -115 -15 -49 -35 -119
-46 -155 -47 -161 -80 -275 -84 -294 -2 -12 -24 -97 -49 -189 -25 -93 -48
-178 -51 -190 -2 -12 -9 -42 -16 -67 -6 -25 -13 -56 -15 -69 -3 -14 -7 -27 -9
-31 -5 -8 -66 -274 -110 -475 -2 -11 -11 -54 -20 -95 -20 -89 -17 -75 -54
-264 -17 -83 -35 -178 -41 -211 -6 -33 -19 -107 -30 -165 -22 -120 -26 -147
-35 -210 -4 -25 -10 -63 -15 -85 -5 -22 -11 -62 -14 -90 -4 -27 -8 -61 -11
-75 -12 -62 -17 -97 -20 -120 -3 -28 -16 -127 -20 -150 -1 -8 -6 -42 -10 -75
-5 -33 -9 -67 -10 -75 -1 -8 -5 -40 -9 -70 -4 -30 -11 -89 -16 -130 -6 -41
-12 -102 -15 -135 -3 -33 -8 -71 -10 -85 -2 -14 -6 -52 -10 -85 -3 -33 -8 -78
-10 -100 -3 -22 -7 -70 -10 -108 -3 -37 -7 -86 -10 -110 -2 -23 -7 -73 -10
-112 -3 -38 -7 -99 -10 -135 -17 -210 -30 -447 -42 -745 -15 -404 -9 -1341 12
-1710 16 -294 19 -333 30 -490 6 -83 12 -155 20 -240 4 -49 10 -106 20 -223 3
-31 7 -75 10 -97 5 -44 12 -104 20 -180 3 -27 7 -66 10 -85 2 -19 7 -60 10
-90 4 -30 8 -66 10 -80 11 -76 16 -109 19 -145 5 -46 14 -105 23 -155 3 -19 7
-48 9 -65 4 -45 12 -96 40 -260 13 -82 26 -164 29 -180 2 -17 6 -42 9 -55 3
-14 8 -36 10 -50 11 -68 20 -118 47 -265 17 -88 37 -192 45 -231 16 -76 17
-78 28 -139 5 -22 14 -65 21 -95 8 -30 16 -66 19 -80 14 -72 27 -130 65 -290
22 -96 48 -202 56 -235 8 -33 17 -68 20 -78 52 -216 154 -581 255 -912 71
-235 281 -865 310 -930 5 -11 32 -83 60 -160 28 -77 55 -149 59 -160 5 -11 37
-92 72 -180 63 -162 176 -437 209 -510 10 -22 36 -83 58 -136 23 -53 59 -135
82 -183 22 -48 40 -89 40 -90 0 -3 32 -73 137 -296 42 -90 300 -604 352 -703
62 -117 129 -240 203 -374 72 -131 233 -412 264 -461 19 -29 34 -54 34 -56 0
-2 41 -71 91 -152 50 -82 104 -170 120 -196 29 -48 41 -67 231 -359 217 -334
476 -703 738 -1050 82 -109 155 -205 164 -215 8 -11 73 -93 145 -184 151 -191
154 -195 281 -346 183 -219 288 -340 519 -599 307 -343 931 -975 1232 -1246
15 -13 68 -62 119 -109 51 -47 111 -101 134 -120 22 -19 47 -42 56 -50 16 -15
144 -127 190 -167 14 -11 63 -54 110 -94 47 -40 94 -80 104 -89 11 -8 35 -29
55 -46 222 -190 774 -615 1121 -863 102 -73 192 -138 200 -144 35 -29 628
-421 765 -507 273 -171 845 -510 860 -510 2 0 26 -13 52 -28 47 -28 153 -86
254 -140 28 -15 78 -42 112 -60 95 -51 643 -326 727 -365 41 -19 111 -51 155
-71 44 -20 88 -41 98 -47 25 -14 407 -182 565 -248 254 -106 776 -311 887
-347 22 -7 78 -27 125 -44 115 -42 620 -210 750 -250 58 -17 116 -35 130 -40
37 -13 179 -54 320 -94 158 -44 311 -86 330 -91 8 -2 51 -13 96 -24 45 -12 90
-24 100 -26 10 -3 46 -11 79 -20 33 -8 69 -17 80 -19 11 -2 56 -13 100 -24 44
-12 91 -23 105 -26 14 -3 36 -8 50 -10 14 -3 34 -8 45 -10 11 -2 38 -9 60 -15
22 -5 56 -13 75 -16 19 -3 51 -10 70 -15 36 -9 62 -15 115 -25 17 -3 48 -9 70
-15 77 -18 588 -114 670 -125 11 -1 65 -10 120 -19 55 -10 114 -19 130 -22 17
-2 41 -6 55 -9 14 -2 43 -7 65 -10 22 -3 67 -10 100 -15 33 -5 83 -11 110 -15
28 -3 61 -8 75 -10 14 -2 48 -6 75 -10 28 -3 61 -8 75 -10 14 -2 52 -6 85 -10
33 -3 71 -8 85 -10 34 -5 113 -14 180 -20 30 -3 69 -8 87 -10 18 -3 63 -7 100
-10 37 -3 88 -8 113 -10 25 -3 72 -7 105 -10 33 -3 85 -7 115 -10 51 -4 116
-9 260 -20 30 -2 111 -7 180 -10 69 -4 145 -9 170 -11 322 -26 1510 -25 1985
1 188 10 293 17 325 20 19 2 85 6 145 10 61 3 124 8 140 10 17 2 66 7 110 10
44 4 96 8 115 10 19 2 69 7 110 10 41 3 82 8 90 10 8 2 47 6 85 9 39 3 80 8
93 10 12 3 54 8 92 11 38 3 78 8 88 10 22 4 99 14 157 20 22 2 54 6 70 9 17 2
55 8 85 11 30 4 57 8 60 10 3 1 30 6 61 9 31 4 65 8 75 10 11 2 55 9 99 16 44
7 88 14 99 16 10 2 37 6 60 8 22 3 51 8 62 10 12 2 38 7 57 10 20 3 112 19
204 36 234 42 252 46 348 66 38 8 86 17 105 20 19 3 38 8 41 10 3 2 21 6 40 9
79 14 393 85 689 157 764 185 1686 481 2489 799 97 38 185 74 196 79 11 5 76
32 145 61 68 28 143 59 165 69 22 10 121 54 220 98 99 44 221 99 270 122 50
23 124 58 165 77 175 82 736 366 835 423 17 10 75 41 130 70 211 112 787 448
793 462 2 4 7 8 12 8 9 0 124 68 187 111 23 16 44 29 47 29 2 0 37 22 78 48
40 26 138 90 218 142 80 52 147 97 150 100 3 3 19 14 35 24 17 10 115 78 218
150 104 72 205 142 225 155 21 13 39 27 42 30 3 3 28 22 55 41 28 19 52 38 53
42 2 4 8 8 12 8 9 0 449 329 570 427 8 7 56 44 105 83 50 39 99 79 110 88 12
9 57 46 100 82 44 35 82 67 85 70 3 3 43 37 90 75 47 39 96 80 110 92 53 46
77 67 129 111 60 52 57 49 127 112 27 25 81 73 119 106 84 74 97 86 250 228
341 317 770 746 1040 1041 50 54 97 105 106 114 168 168 941 1095 1099 1317 8
12 64 86 123 165 59 79 116 155 125 168 9 12 26 35 37 49 18 24 142 198 165
232 6 8 34 49 63 90 66 93 208 304 222 327 6 10 54 83 106 163 131 198 271
424 422 680 70 118 132 222 137 230 6 8 23 40 40 70 16 30 40 73 53 95 24 41
78 139 130 235 16 30 40 73 52 95 128 228 453 888 605 1230 12 28 35 78 51
113 16 35 29 65 29 67 0 2 14 34 31 72 16 37 34 77 39 88 4 11 15 36 23 55 8
19 41 98 72 175 31 77 62 154 69 170 8 17 37 91 65 165 29 74 56 144 60 155 5
11 21 54 36 95 14 41 30 84 34 95 69 175 234 664 335 990 68 221 216 743 231
815 2 8 28 115 59 236 48 189 69 279 92 389 2 11 6 29 9 40 7 29 64 296 70
325 2 14 6 34 9 45 4 19 48 245 60 310 13 68 85 493 91 535 3 25 15 99 25 165
10 66 22 145 25 175 3 30 8 62 10 70 2 8 6 40 10 71 3 31 7 65 9 75 2 11 7 48
10 84 4 36 8 75 10 87 3 12 7 50 11 85 6 60 11 110 20 188 6 51 15 137 20 200
2 30 7 80 9 110 3 30 8 85 11 122 2 37 7 93 9 125 6 63 12 160 31 478 27 462
27 1519 0 1980 -2 39 -6 119 -10 179 -5 106 -9 155 -20 299 -4 38 -8 98 -10
135 -3 37 -7 90 -10 117 -3 28 -8 77 -10 110 -10 123 -28 298 -40 395 -3 19
-7 58 -10 85 -3 28 -11 86 -16 130 -6 44 -13 96 -15 115 -2 19 -6 49 -8 65 -3
17 -8 53 -11 80 -10 72 -15 107 -20 135 -2 14 -7 43 -10 65 -3 22 -10 67 -15
100 -5 33 -12 78 -15 100 -3 22 -8 51 -10 65 -3 14 -7 41 -10 60 -15 93 -46
270 -55 315 -5 28 -17 86 -25 130 -8 44 -18 91 -21 105 -3 14 -7 36 -9 50 -2
14 -11 57 -19 95 -9 39 -18 81 -20 95 -14 70 -16 79 -83 375 -13 61 -26 117
-28 125 -8 36 -105 421 -120 475 -19 71 -43 162 -50 190 -10 44 -106 370 -154
525 -28 91 -54 176 -57 190 -3 13 -10 30 -16 37 -6 7 -8 13 -4 13 3 0 -43 143
-103 318 -151 439 -217 618 -363 982 -157 392 -303 725 -488 1115 -66 141
-274 556 -330 660 -23 44 -51 96 -61 115 -34 66 -226 415 -258 468 -17 29 -31
55 -31 57 0 4 -207 355 -260 440 -20 33 -63 103 -95 155 -104 169 -329 515
-337 518 -4 2 -8 7 -8 12 0 13 -302 451 -448 650 -226 306 -677 889 -712 920
-3 3 -61 72 -130 155 -69 82 -145 172 -169 200 -24 27 -55 64 -69 80 -33 39
-349 391 -376 419 -12 12 -91 96 -176 186 -309 327 -761 769 -1059 1036 -30
27 -62 56 -71 64 -9 8 -52 47 -95 85 -44 39 -97 85 -117 104 -21 19 -48 41
-60 49 -13 9 -27 21 -33 28 -9 10 -99 88 -275 235 -68 57 -365 295 -410 329
-18 14 -38 30 -44 35 -25 23 -503 382 -562 423 -11 7 -89 63 -174 123 -85 61
-283 196 -440 300 -157 104 -294 195 -305 202 -156 105 -741 456 -980 587 -33
18 -111 62 -174 97 -62 34 -115 63 -117 63 -2 0 -50 25 -106 56 -111 61 -624
319 -750 378 -43 20 -111 51 -150 70 -461 214 -916 405 -1400 585 -120 45
-219 81 -222 81 -3 0 -17 5 -33 12 -15 6 -32 12 -38 14 -5 2 -140 48 -300 102
-253 85 -434 144 -485 157 -8 2 -60 18 -115 35 -194 60 -802 227 -895 245 -8
2 -15 4 -15 5 0 1 -11 3 -24 6 -13 2 -67 15 -120 28 -77 19 -242 58 -304 70
-7 2 -23 6 -37 9 -72 17 -158 36 -185 41 -16 2 -63 11 -102 20 -40 9 -85 18
-100 21 -16 3 -39 7 -53 10 -14 2 -47 9 -75 15 -27 5 -66 12 -85 15 -19 3 -80
14 -135 25 -55 11 -116 22 -135 24 -41 7 -81 13 -130 22 -19 4 -45 8 -56 10
-12 1 -38 5 -58 8 -20 3 -53 8 -73 11 -21 3 -60 10 -88 15 -27 5 -72 12 -100
15 -27 3 -61 7 -75 10 -14 3 -63 10 -110 15 -47 6 -98 13 -115 16 -16 3 -48 7
-70 9 -22 3 -56 7 -75 9 -19 3 -57 8 -85 11 -27 3 -68 8 -90 11 -22 3 -62 7
-90 10 -27 2 -66 6 -85 8 -19 2 -66 6 -105 10 -38 4 -92 9 -120 12 -162 16
-259 24 -335 29 -192 12 -268 17 -300 20 -19 2 -109 7 -200 10 -91 4 -187 9
-215 11 -57 5 -1262 14 -1267 9z m-3580 -13676 c2 -5 8 -9 13 -9 5 0 37 -17
71 -38 35 -21 74 -43 88 -50 14 -7 39 -21 55 -31 17 -10 34 -16 39 -13 5 3 6
0 2 -6 -3 -6 4 -14 16 -17 13 -4 31 -14 41 -23 9 -8 17 -11 17 -6 0 5 4 4 8
-2 8 -12 220 -134 233 -134 5 0 9 -5 9 -11 0 -5 5 -7 10 -4 6 3 10 2 10 -3 0
-8 71 -46 79 -42 2 1 7 -2 10 -7 9 -13 121 -78 128 -75 3 2 9 -1 12 -6 8 -13
183 -115 198 -115 7 0 10 -4 7 -9 -3 -4 0 -8 5 -8 19 0 25 -3 45 -22 11 -10
28 -18 38 -18 10 0 18 -4 18 -8 0 -5 12 -15 28 -22 15 -8 39 -23 55 -33 15
-10 27 -15 27 -12 0 4 7 -1 16 -9 8 -9 20 -13 26 -10 6 4 8 3 5 -3 -4 -6 13
-19 36 -29 23 -10 44 -21 47 -24 14 -17 118 -69 125 -62 5 4 5 2 2 -4 -5 -9
61 -50 72 -44 2 1 7 -2 10 -7 6 -9 82 -58 91 -58 3 0 25 -14 50 -29 25 -16 51
-29 57 -29 7 0 13 -3 13 -7 0 -6 66 -46 85 -51 6 -1 16 -9 23 -16 8 -7 18 -11
23 -8 5 4 9 1 9 -5 0 -6 15 -17 34 -25 19 -8 38 -19 41 -25 4 -6 11 -8 16 -5
5 4 9 2 9 -3 0 -5 12 -15 28 -23 15 -7 55 -31 90 -51 34 -21 68 -39 75 -41 6
-1 16 -7 22 -13 5 -7 44 -29 85 -50 41 -22 81 -45 88 -51 7 -7 30 -20 50 -30
20 -9 40 -22 44 -27 5 -7 8 -7 8 -1 0 6 3 6 8 -1 4 -6 32 -24 62 -40 30 -16
61 -35 68 -42 8 -7 17 -10 22 -7 4 3 11 -2 14 -11 4 -9 13 -14 22 -10 8 3 13
2 10 -3 -5 -8 42 -36 57 -33 4 1 7 -2 7 -8 0 -5 5 -10 11 -10 5 0 26 -11 46
-25 20 -13 40 -22 44 -20 4 3 9 -1 12 -8 2 -6 31 -25 63 -42 33 -16 61 -33 62
-38 2 -4 8 -5 13 -1 5 3 9 1 9 -5 0 -5 9 -13 21 -16 12 -4 37 -18 56 -31 20
-13 40 -21 47 -17 6 3 8 3 4 -2 -8 -8 137 -97 159 -98 7 0 15 -7 17 -14 3 -8
10 -11 16 -8 5 3 10 2 10 -2 0 -5 21 -20 48 -33 26 -14 66 -38 90 -53 23 -15
42 -25 42 -22 0 4 7 -1 16 -9 8 -9 22 -16 30 -16 8 0 14 -4 14 -10 0 -5 6 -10
14 -10 7 0 19 -7 26 -15 7 -8 16 -12 21 -9 5 3 9 0 9 -5 0 -6 5 -11 10 -11 6
0 35 -15 65 -34 29 -19 56 -32 59 -29 3 4 6 0 6 -7 0 -7 3 -10 7 -7 3 4 11 0
17 -8 6 -7 18 -15 26 -17 8 -2 23 -11 34 -20 10 -10 23 -15 28 -12 4 3 8 2 8
-3 0 -4 26 -21 58 -38 31 -16 59 -32 62 -35 7 -9 43 -24 53 -22 4 1 7 -2 7 -7
0 -11 87 -61 107 -61 8 0 11 -4 8 -10 -3 -5 -1 -10 6 -10 6 0 34 -13 60 -30
27 -16 49 -26 49 -22 0 4 4 2 8 -4 9 -13 179 -114 192 -114 6 0 10 -5 10 -11
0 -6 7 -8 17 -5 10 4 14 4 10 0 -8 -8 70 -56 91 -57 6 0 12 -4 12 -8 0 -11 60
-42 60 -32 0 5 4 3 8 -3 10 -14 85 -59 95 -56 4 1 7 -2 7 -6 0 -9 53 -37 57
-30 1 1 9 -6 17 -17 8 -11 17 -17 21 -13 4 3 15 -2 26 -13 10 -10 26 -19 34
-19 8 0 15 -4 15 -10 0 -5 5 -10 11 -10 6 0 24 -9 40 -21 16 -11 29 -17 29
-12 0 4 4 3 8 -3 4 -6 29 -23 55 -37 26 -15 59 -34 72 -43 14 -9 25 -13 25 -8
0 4 7 -1 15 -12 8 -10 15 -14 15 -9 0 6 3 6 8 0 5 -9 222 -138 317 -189 11 -6
28 -17 38 -25 9 -8 17 -11 17 -7 0 4 7 0 16 -8 8 -9 20 -14 25 -11 5 4 9 2 9
-4 0 -6 14 -17 30 -26 17 -9 30 -13 30 -10 0 3 9 -3 20 -13 12 -11 42 -30 68
-43 26 -13 49 -26 52 -29 14 -14 68 -39 74 -33 3 3 6 1 6 -4 0 -11 116 -81
134 -81 5 0 12 -4 15 -10 3 -5 26 -20 51 -34 91 -51 125 -72 143 -86 9 -8 17
-12 17 -7 0 4 6 2 13 -4 8 -6 18 -7 22 -3 5 4 5 2 2 -4 -5 -9 38 -37 71 -46 4
-1 16 -10 26 -20 10 -9 23 -15 28 -12 4 3 8 1 8 -5 0 -10 39 -27 53 -23 5 1 6
-1 3 -6 -5 -9 62 -47 77 -44 4 1 7 -1 7 -6 0 -4 21 -19 48 -32 26 -14 50 -29
54 -35 5 -7 8 -7 8 0 0 6 3 5 8 -1 4 -6 34 -26 67 -44 33 -18 72 -40 87 -49
183 -108 320 -185 324 -183 3 1 11 -4 19 -12 8 -8 48 -33 88 -56 39 -22 87
-50 105 -60 17 -11 32 -16 32 -12 0 4 4 2 8 -4 9 -15 113 -77 130 -77 6 0 12
-3 12 -7 0 -3 14 -14 30 -23 17 -10 30 -15 30 -12 0 3 10 -3 22 -15 12 -11 28
-20 35 -20 7 0 13 -3 13 -8 0 -9 61 -38 73 -34 5 1 6 -1 3 -6 -2 -4 10 -14 27
-22 18 -7 43 -21 56 -32 13 -10 27 -15 32 -12 5 3 9 1 9 -4 0 -10 319 -195
337 -195 7 0 10 -3 8 -7 -4 -6 66 -44 74 -40 2 1 7 -2 10 -7 7 -9 109 -73 118
-73 3 0 17 -9 33 -20 15 -11 30 -17 34 -13 3 3 6 2 6 -4 0 -6 18 -20 40 -32
22 -11 40 -18 40 -15 0 2 10 -4 22 -15 11 -11 25 -18 30 -15 4 3 8 1 8 -4 0
-5 17 -18 38 -27 20 -10 39 -21 42 -25 12 -16 138 -79 145 -72 5 4 5 2 1 -5
-6 -11 29 -30 47 -25 5 1 6 -1 3 -6 -3 -5 14 -17 37 -27 23 -10 44 -21 47 -25
13 -16 118 -69 125 -62 5 4 5 1 1 -5 -4 -7 -2 -13 3 -13 19 0 25 -3 45 -22 10
-9 22 -15 26 -13 5 3 10 -2 14 -10 3 -8 10 -15 16 -15 7 0 44 -19 83 -42 40
-23 74 -41 76 -39 2 1 7 -2 10 -7 6 -9 66 -43 76 -42 3 0 15 -9 27 -20 20 -18
27 -21 44 -19 4 0 10 -3 13 -8 14 -21 72 -54 82 -47 8 4 9 3 5 -4 -4 -7 3 -14
19 -18 14 -3 25 -10 25 -14 0 -5 10 -12 22 -16 12 -3 44 -21 72 -38 28 -17 63
-38 79 -45 32 -17 34 -27 7 -36 -11 -4 -18 -11 -14 -16 3 -5 2 -8 -3 -7 -15 5
-122 -55 -116 -65 3 -6 1 -7 -5 -3 -6 3 -16 1 -24 -6 -7 -7 -20 -14 -28 -16
-8 -2 -21 -11 -28 -20 -7 -9 -15 -16 -17 -15 -12 4 -45 -11 -45 -20 0 -6 -3
-7 -6 -4 -7 6 -63 -28 -75 -46 -3 -5 -8 -8 -10 -7 -10 4 -59 -21 -59 -30 0 -6
-4 -9 -9 -5 -5 3 -16 -2 -25 -10 -8 -9 -29 -21 -46 -26 -18 -7 -27 -16 -23
-22 3 -7 3 -9 -2 -5 -9 9 -85 -31 -85 -44 0 -5 -4 -7 -9 -3 -5 3 -16 -1 -24
-9 -8 -8 -17 -12 -21 -9 -3 4 -6 1 -6 -5 0 -7 -5 -12 -10 -12 -6 0 -40 -18
-76 -40 -36 -22 -68 -40 -70 -40 -2 0 -33 -18 -69 -40 -36 -22 -70 -40 -75
-40 -6 0 -10 -4 -10 -10 0 -5 -5 -10 -11 -10 -13 0 -152 -81 -161 -95 -4 -5
-8 -6 -8 -1 0 5 -6 4 -12 -2 -15 -11 -187 -111 -268 -155 -30 -16 -59 -35 -65
-42 -5 -6 -14 -13 -20 -14 -26 -4 -45 -13 -45 -22 0 -5 -5 -9 -10 -9 -6 0 -36
-16 -66 -35 -30 -19 -57 -35 -62 -36 -19 -4 -52 -23 -52 -31 0 -4 -5 -8 -11
-8 -14 0 -133 -71 -137 -82 -2 -4 -8 -6 -12 -3 -5 3 -18 -3 -30 -15 -11 -11
-20 -17 -20 -14 0 3 -13 -3 -30 -13 -16 -9 -30 -21 -30 -26 0 -4 -4 -6 -9 -2
-5 3 -17 -2 -25 -11 -9 -8 -16 -13 -16 -9 0 3 -14 -3 -31 -15 -16 -12 -51 -33
-77 -47 -26 -14 -50 -29 -53 -35 -3 -5 -9 -9 -13 -9 -14 2 -75 -33 -70 -41 3
-4 -1 -5 -9 -2 -8 3 -20 -2 -27 -11 -7 -8 -18 -15 -26 -15 -7 0 -17 -7 -22
-16 -5 -9 -13 -16 -18 -16 -25 -2 -43 -11 -38 -19 3 -5 2 -8 -3 -7 -14 4 -53
-13 -53 -23 0 -6 -4 -8 -9 -5 -5 3 -14 -1 -21 -9 -7 -8 -16 -15 -21 -15 -11 0
-133 -73 -141 -85 -4 -5 -8 -6 -8 -2 0 5 -13 -1 -29 -12 -16 -12 -34 -21 -41
-21 -6 0 -9 -4 -6 -8 3 -5 0 -9 -7 -9 -7 0 -37 -15 -67 -33 -30 -18 -84 -49
-120 -68 -36 -20 -71 -42 -78 -49 -7 -7 -19 -13 -26 -13 -7 0 -23 -10 -36 -22
-14 -13 -27 -22 -30 -22 -10 3 -80 -37 -80 -46 0 -5 -7 -7 -15 -4 -8 4 -15 1
-15 -5 0 -6 -7 -11 -15 -11 -8 0 -15 -5 -15 -11 0 -5 -4 -8 -9 -4 -6 3 -14 -3
-20 -12 -6 -10 -11 -15 -11 -11 0 7 -12 1 -97 -48 -18 -11 -33 -23 -33 -27 0
-5 -4 -5 -10 -2 -5 3 -10 1 -10 -5 0 -6 -4 -8 -10 -5 -5 3 -10 2 -10 -2 0 -5
-16 -15 -35 -22 -19 -7 -33 -17 -29 -22 3 -5 2 -8 -3 -7 -13 4 -105 -45 -110
-59 -3 -7 -10 -10 -16 -6 -5 3 -16 -2 -24 -12 -7 -11 -13 -15 -13 -11 0 4 -13
-2 -29 -13 -16 -12 -33 -21 -38 -21 -5 0 -20 -10 -33 -22 -14 -13 -27 -22 -30
-21 -7 3 -134 -68 -141 -79 -3 -6 -9 -8 -12 -6 -4 1 -15 -5 -27 -14 -11 -10
-20 -14 -20 -10 0 4 -7 -2 -16 -13 -8 -11 -16 -18 -17 -16 -1 3 -16 -1 -34 -9
-17 -8 -29 -18 -26 -24 3 -5 2 -6 -4 -3 -5 3 -33 -9 -61 -27 -28 -19 -53 -32
-55 -30 -2 3 -10 -2 -17 -11 -7 -8 -19 -15 -26 -15 -8 0 -14 -5 -14 -11 0 -5
-4 -8 -9 -4 -6 3 -14 -3 -20 -12 -5 -10 -12 -17 -15 -15 -16 6 -26 1 -20 -10
4 -7 4 -10 -1 -6 -7 7 -64 -17 -75 -31 -3 -4 -16 -12 -30 -19 -76 -39 -90 -49
-83 -55 4 -5 0 -5 -10 -1 -10 3 -17 1 -17 -5 0 -6 -5 -11 -10 -11 -6 0 -38
-17 -73 -37 -34 -21 -79 -47 -100 -58 -20 -11 -37 -23 -37 -27 0 -5 -7 -8 -15
-8 -8 0 -39 -16 -69 -35 -30 -19 -60 -35 -66 -35 -5 0 -10 -4 -10 -10 0 -5 -7
-10 -15 -10 -8 0 -15 -5 -15 -10 0 -6 -3 -9 -7 -8 -13 3 -63 -25 -63 -34 0 -5
-5 -6 -10 -3 -6 3 -13 -1 -16 -9 -3 -9 -10 -14 -14 -11 -5 3 -15 -1 -23 -9 -8
-8 -17 -12 -21 -9 -3 4 -6 2 -6 -4 0 -6 -11 -14 -25 -17 -16 -4 -23 -11 -19
-18 4 -6 3 -8 -3 -5 -11 7 -142 -66 -154 -85 -3 -5 -10 -9 -15 -8 -13 2 -104
-53 -104 -63 0 -4 -5 -5 -11 -2 -5 4 -18 0 -27 -8 -9 -8 -44 -29 -77 -47 -33
-18 -65 -38 -71 -46 -6 -8 -13 -11 -16 -9 -3 3 -21 -6 -40 -19 -20 -13 -45
-27 -57 -31 -12 -3 -18 -11 -15 -17 4 -6 1 -9 -7 -6 -8 3 -33 -8 -56 -23 -23
-16 -44 -29 -47 -29 -10 0 -111 -64 -114 -72 -2 -5 -8 -6 -12 -3 -5 3 -18 -2
-28 -12 -10 -10 -25 -19 -33 -21 -8 -2 -21 -10 -30 -18 -9 -8 -19 -11 -22 -7
-4 3 -7 1 -7 -5 0 -7 -4 -12 -8 -12 -14 0 -215 -118 -222 -130 -4 -7 -10 -11
-14 -10 -14 4 -65 -23 -60 -31 3 -5 2 -9 -3 -8 -17 3 -32 -1 -45 -13 -8 -7
-29 -21 -48 -32 -91 -49 -125 -70 -131 -78 -3 -6 -8 -9 -10 -8 -9 4 -59 -24
-59 -32 0 -5 -4 -6 -10 -3 -5 3 -10 1 -10 -5 0 -6 -4 -9 -9 -5 -6 3 -13 -1
-18 -9 -8 -14 -12 -16 -34 -16 -5 0 -7 -6 -3 -12 4 -7 4 -10 -1 -6 -9 9 -65
-19 -65 -32 0 -6 -3 -9 -7 -8 -18 5 -53 -14 -47 -25 4 -7 4 -9 -1 -5 -7 7 -63
-17 -75 -31 -3 -3 -35 -22 -72 -41 -36 -19 -64 -39 -61 -45 4 -5 3 -7 -2 -3
-9 9 -65 -19 -65 -32 0 -6 -3 -9 -7 -9 -17 3 -32 -2 -45 -13 -7 -7 -35 -24
-61 -38 -26 -13 -47 -28 -47 -32 0 -5 -3 -7 -7 -6 -10 3 -143 -71 -161 -89 -7
-7 -17 -13 -22 -13 -12 0 -133 -72 -142 -85 -4 -5 -8 -6 -8 -2 0 5 -13 -1 -29
-12 -16 -12 -34 -21 -40 -21 -6 0 -11 -4 -11 -10 0 -5 -7 -10 -15 -10 -8 0
-15 -5 -15 -11 0 -5 -4 -8 -10 -4 -5 3 -18 -3 -30 -15 -11 -11 -23 -20 -27
-20 -21 0 -43 -13 -37 -21 3 -5 2 -9 -3 -8 -17 3 -52 -14 -47 -22 3 -5 2 -8
-3 -7 -17 6 -73 -25 -66 -36 3 -6 3 -8 -2 -4 -10 9 -65 -19 -65 -33 0 -6 -4
-8 -9 -4 -5 3 -26 -6 -46 -19 -20 -14 -45 -28 -56 -31 -11 -4 -17 -11 -13 -16
3 -5 2 -9 -3 -8 -17 3 -32 -1 -45 -14 -7 -7 -32 -21 -55 -31 -23 -10 -40 -23
-37 -28 3 -5 2 -7 -3 -6 -17 4 -53 -14 -47 -24 5 -7 2 -8 -6 -3 -7 4 -15 4
-19 -1 -3 -5 -31 -22 -61 -38 -30 -16 -57 -33 -60 -36 -3 -4 -15 -10 -28 -14
-12 -4 -20 -12 -16 -17 3 -5 2 -8 -3 -7 -12 3 -53 -12 -53 -21 0 -4 -16 -13
-35 -20 -19 -7 -35 -17 -35 -22 0 -5 -3 -8 -7 -7 -11 3 -73 -34 -73 -44 0 -4
-6 -5 -13 -2 -7 2 -23 -5 -35 -16 -12 -11 -22 -17 -22 -13 0 4 -7 0 -14 -10
-8 -10 -17 -18 -20 -18 -21 3 -26 0 -20 -11 5 -7 3 -8 -6 -3 -7 4 -16 2 -20
-6 -5 -7 -15 -14 -24 -15 -8 -1 -28 -11 -43 -21 -15 -11 -36 -23 -45 -26 -10
-4 -18 -11 -18 -17 0 -6 -4 -9 -9 -5 -5 3 -16 -1 -24 -9 -8 -8 -17 -12 -21 -9
-3 3 -8 -2 -12 -11 -3 -9 -10 -14 -14 -11 -5 3 -19 -5 -31 -17 -12 -13 -19
-17 -15 -11 4 8 -5 6 -23 -4 -16 -10 -27 -21 -24 -25 2 -5 1 -7 -4 -6 -12 4
-73 -23 -73 -32 0 -4 -11 -11 -25 -14 -14 -4 -25 -11 -25 -16 0 -6 -6 -10 -13
-10 -7 0 -46 -20 -86 -45 -40 -25 -77 -45 -82 -45 -5 0 -9 -5 -9 -11 0 -5 -4
-8 -8 -5 -5 3 -18 -3 -29 -14 -12 -10 -24 -16 -27 -13 -3 4 -6 0 -6 -7 0 -7
-3 -10 -6 -7 -6 5 -58 -25 -74 -43 -3 -3 -10 -6 -15 -7 -24 -4 -94 -50 -88
-58 5 -4 3 -5 -3 -2 -6 3 -26 -4 -45 -16 -19 -11 -38 -21 -42 -22 -4 0 -11 -6
-16 -13 -5 -8 -11 -13 -15 -13 -20 3 -26 0 -21 -9 3 -5 0 -7 -8 -4 -13 5 -15
775 -15 5825 l0 5820 22 -7 c11 -4 23 -11 24 -15z"/>
</g>
</svg>
